<svg version="1.1" xmlns="http://www.w3.org/2000/svg" xmlns:xlink="http://www.w3.org/1999/xlink" viewBox="0 0 240 160" width="240" height="160">
  <g id="LogoIcon" transform="translate(73, 10)">
    <path fill="#E06900" d="M45.52,78.63c-11.04,0.69-19.11-6.76-23.98-15.36C10.05,42.98,16.22,12,41.49,3.15
      c3.78-1.32,7.51-2,11.15-2.13c25.21-0.84,46.62,23.36,46.62,49.12c0,17.73-9.15,33.28-22.92,42.07c8.1-8.86,13.05-20.72,13.05-33.76
      c0-10.28-3.28-21.56-10.57-30.34c-5.47-6.58-13.3-11-22.23-11c-16.49,0-29.86,16.37-29.86,31.57c0,10.46,3.51,18.19,9.15,23.58
      C39.56,75.79,43.77,77.86,45.52,78.63L45.52,78.63z"/>
    <path fill="#E06900" d="M55.11,21.37c11.04-0.69,19.11,6.76,23.98,15.36c11.49,20.29,5.32,51.27-19.96,60.12
      c-3.77,1.32-7.51,2-11.15,2.12C22.78,99.82,1.37,75.62,1.37,49.85c0-17.73,9.15-33.28,22.92-42.07
      c-8.1,8.86-13.05,20.72-13.05,33.76c0,10.28,3.28,21.56,10.57,30.34c5.47,6.58,13.3,11,22.23,11c16.49,0,29.86-16.37,29.86-31.57
      c0-10.46-3.51-18.19-9.14-23.58C61.08,24.21,56.88,22.14,55.11,21.37L55.11,21.37z"/>
  </g>
  <g id="BrandName" fill="#E06900" transform="translate(31.5, 120)">
    <path d="M7.56-0.37C8 0.67 9.45 0.44 9.85-0.37L15.42-11.71 20.82-0.37C21.23 0.47 22.71 0.54 23.08-0.37L29.8-16.06C30.4-17.51 28.01-18.12 27.54-16.87L21.9-3.78 16.5-14.88C16-16 14.65-16 14.17-14.88L8.84-3.81 3.07-17.01C2.6-18.09 0.2-17.51 0.74-16.06ZM32.67-0.88C32.67 0.57 35.13 0.61 35.13-0.88L35.13-16.1C35.13-17.55 32.67-17.51 32.67-16.06ZM35.16-21.23C35.16-22.78 32.63-22.78 32.63-21.23L32.63-19.71C32.63-18.16 35.16-18.19 35.16-19.71ZM42.28-21.26C42.28-21.9 41.74-22.41 41.07-22.41 40.33-22.41 39.82-21.9 39.82-21.26L39.82-1.01C39.82-0.37 40.33 0.13 41.07 0.13 41.74 0.13 42.28-0.37 42.28-1.01ZM49.1-21.26C49.1-21.9 48.56-22.41 47.89-22.41 47.14-22.41 46.64-21.9 46.64-21.26L46.64-1.01C46.64-0.37 47.14 0.13 47.89 0.13 48.56 0.13 49.1-0.37 49.1-1.01ZM61.48 0.3C64.15 0.3 66.58-0.74 68.23-2.73 69.72-4.52 70.39-6.68 70.26-9.21 69.96-12.99 67.66-16.1 63.98-17.14 63.1-17.38 62.29-17.45 61.48-17.45 60.64-17.45 59.73-17.38 58.92-17.14 55.21-16.1 53.01-12.96 52.68-9.21 52.58-6.68 53.22-4.52 54.74-2.73 56.39-0.74 58.79 0.3 61.48 0.3ZM63.31-14.92C66.18-14.17 67.83-11.51 67.83-8.44 67.83-6.99 67.29-5.37 66.34-4.22 65.16-2.87 63.31-1.99 61.48-1.99 59.63-1.99 57.84-2.8 56.66-4.22 55.65-5.4 55.17-6.99 55.17-8.5 55.17-11.54 56.83-14.17 59.66-14.92 60.17-15.05 60.81-15.15 61.45-15.15 62.09-15.15 62.77-15.05 63.31-14.92ZM78.86-0.37C79.3 0.67 80.75 0.44 81.16-0.37L86.73-11.71 92.13-0.37C92.53 0.47 94.02 0.54 94.39-0.37L101.1-16.06C101.71-17.51 99.31-18.12 98.84-16.87L93.21-3.78 87.81-14.88C87.3-16 85.95-16 85.48-14.88L80.15-3.81 74.38-17.01C73.9-18.09 71.51-17.51 72.05-16.06ZM109.54-0.37C109.98 0.67 111.43 0.44 111.83-0.37L117.4-11.71 122.8-0.37C123.21 0.47 124.69 0.54 125.06-0.37L131.78-16.06C132.38-17.51 129.99-18.12 129.52-16.87L123.88-3.78 118.48-14.88C117.98-16 116.63-16 116.15-14.88L110.82-3.81 105.05-17.01C104.58-18.09 102.18-17.51 102.72-16.06ZM134.65-0.88C134.65 0.57 137.11 0.61 137.11-0.88L137.11-16.1C137.11-17.55 134.65-17.51 134.65-16.06ZM137.14-21.23C137.14-22.78 134.61-22.78 134.61-21.23L134.61-19.71C134.61-18.16 137.14-18.19 137.14-19.71ZM141.12-3.81C141.8-0.44 146.12 0.27 148.92 0.27 151.72 0.27 156.58-0.78 156.58-5.03 156.58-9.25 152.63-9.58 148.92-9.92 146.22-10.12 143.72-10.09 143.72-12.25 143.72-14.34 146.66-15.19 148.62-15.19 150.13-15.19 152.97-15.05 153.71-13.09 154.15-11.81 156.48-12.45 156.01-13.97 154.83-17.01 151.21-17.45 148.62-17.45 145.38-17.45 141.26-15.89 141.26-12.28 141.26-8.13 145.17-7.83 148.82-7.49 151.55-7.29 154.12-7.19 154.12-5.03 154.12-2.7 150.57-1.96 148.92-1.96 146.46-1.96 143.82-2.73 143.49-4.25 143.18-5.94 140.72-5.23 141.12-3.81ZM174.57-1.01C174.57-0.27 175.07 0.2 175.82 0.2 176.59 0.2 177.03-0.27 177.03-1.01L177.03-9.92C177.03-14.78 173.28-17.48 169.37-17.48 166.84-17.48 164.21-16.5 162.99-14.14L162.99-21.23C162.99-22.64 160.49-22.68 160.49-21.23L160.49-1.01C160.49-0.27 161 0.2 161.78 0.2 162.55 0.2 162.99-0.27 162.99-1.01L162.99-9.42C162.99-12.89 166.06-15.19 169.34-15.19 172.07-15.19 174.57-13.03 174.57-9.92Z" transform="translate(-0.66, 22.4)"/>
  </g>
  <g id="BrandSlogan" fill="#E06900" transform="translate(41.2, 150)">
    <path d="M1.33 0L0.37 0L0.37-6.20L1.33-6.20L1.33 0ZM2.50-2.79L1.78-2.79L1.78-3.72L2.41-3.72Q2.61-3.72 2.78-3.78Q2.94-3.84 3.04-4.01Q3.14-4.18 3.14-4.51L3.14-4.51Q3.14-4.82 3.04-4.98Q2.94-5.15 2.78-5.21Q2.61-5.27 2.41-5.27L2.41-5.27L1.78-5.27L1.78-6.20L2.50-6.20Q3.07-6.19 3.42-6.00Q3.77-5.80 3.94-5.42Q4.11-5.04 4.11-4.47L4.11-4.47Q4.11-3.88 3.93-3.51Q3.76-3.14 3.40-2.97Q3.04-2.80 2.50-2.79L2.50-2.79ZM157.37 0.04L157.37 0.04Q157.14 0.04 156.98-0.12Q156.82-0.28 156.82-0.51L156.82-0.51Q156.82-0.75 156.98-0.92Q157.14-1.08 157.37-1.08L157.37-1.08Q157.61-1.08 157.78-0.92Q157.94-0.75 157.94-0.51L157.94-0.51Q157.94-0.28 157.78-0.12Q157.61 0.04 157.37 0.04Z" transform="translate(-0.37, 6.2)"/>
  </g>
</svg>
