<svg version="1.1" xmlns="http://www.w3.org/2000/svg" viewBox="0 0 100 100" width="100" height="100">
  <g id="LogoIcon">
    <path fill="#E06900" d="M45.52,78.63c-11.04,0.69-19.11-6.76-23.98-15.36C10.05,42.98,16.22,12,41.49,3.15
      c3.78-1.32,7.51-2,11.15-2.13c25.21-0.84,46.62,23.36,46.62,49.12c0,17.73-9.15,33.28-22.92,42.07c8.1-8.86,13.05-20.72,13.05-33.76
      c0-10.28-3.28-21.56-10.57-30.34c-5.47-6.58-13.3-11-22.23-11c-16.49,0-29.86,16.37-29.86,31.57c0,10.46,3.51,18.19,9.15,23.58
      C39.56,75.79,43.77,77.86,45.52,78.63L45.52,78.63z"></path>
    <path fill="#E06900" d="M55.11,21.37c11.04-0.69,19.11,6.76,23.98,15.36c11.49,20.29,5.32,51.27-19.96,60.12
      c-3.77,1.32-7.51,2-11.15,2.12C22.78,99.82,1.37,75.62,1.37,49.85c0-17.73,9.15-33.28,22.92-42.07
      c-8.1,8.86-13.05,20.72-13.05,33.76c0,10.28,3.28,21.56,10.57,30.34c5.47,6.58,13.3,11,22.23,11c16.49,0,29.86-16.37,29.86-31.57
      c0-10.46-3.51-18.19-9.14-23.58C61.08,24.21,56.88,22.14,55.11,21.37L55.11,21.37z"></path>
  </g>
</svg>
